<mxfile host="app.diagrams.net" agent="Mozilla/5.0 (Macintosh; Intel Mac OS X 10_15_7) AppleWebKit/537.36 (KHTML, like Gecko) Chrome/138.0.0.0 Safari/537.36" version="28.1.0">
  <diagram name="第 1 页" id="iD8nOiVaI7FNQa0ykPru">
    <mxGraphModel dx="2066" dy="1068" grid="0" gridSize="10" guides="1" tooltips="1" connect="1" arrows="1" fold="1" page="0" pageScale="1" pageWidth="827" pageHeight="1169" math="0" shadow="0">
      <root>
        <mxCell id="0" />
        <mxCell id="1" parent="0" />
        <mxCell id="P6B6IK8A87WF3uyFW7dz-1" value="" style="rounded=0;whiteSpace=wrap;html=1;strokeWidth=2;" parent="1" vertex="1">
          <mxGeometry x="552.5" y="974" width="1119.5" height="87" as="geometry" />
        </mxCell>
        <mxCell id="P6B6IK8A87WF3uyFW7dz-2" value="" style="rounded=0;whiteSpace=wrap;html=1;strokeWidth=2;" parent="1" vertex="1">
          <mxGeometry x="550" y="467" width="1122" height="315" as="geometry" />
        </mxCell>
        <mxCell id="P6B6IK8A87WF3uyFW7dz-3" value="" style="rounded=0;whiteSpace=wrap;html=1;strokeWidth=2;" parent="1" vertex="1">
          <mxGeometry x="552" y="840" width="1121" height="90" as="geometry" />
        </mxCell>
        <mxCell id="P6B6IK8A87WF3uyFW7dz-4" value="Database" style="rounded=0;whiteSpace=wrap;html=1;strokeWidth=1;" parent="1" vertex="1">
          <mxGeometry x="569" y="987" width="164" height="60" as="geometry" />
        </mxCell>
        <mxCell id="P6B6IK8A87WF3uyFW7dz-5" value="Git" style="rounded=0;whiteSpace=wrap;html=1;strokeWidth=1;" parent="1" vertex="1">
          <mxGeometry x="756" y="987" width="161" height="60" as="geometry" />
        </mxCell>
        <mxCell id="P6B6IK8A87WF3uyFW7dz-6" value="AWS S3" style="rounded=0;whiteSpace=wrap;html=1;strokeWidth=1;" parent="1" vertex="1">
          <mxGeometry x="937" y="987" width="161" height="60" as="geometry" />
        </mxCell>
        <mxCell id="P6B6IK8A87WF3uyFW7dz-7" value="NestJS" style="rounded=0;whiteSpace=wrap;html=1;strokeWidth=1;" parent="1" vertex="1">
          <mxGeometry x="1124.5" y="988.5" width="161" height="60" as="geometry" />
        </mxCell>
        <mxCell id="P6B6IK8A87WF3uyFW7dz-8" value="K8S" style="rounded=0;whiteSpace=wrap;html=1;strokeWidth=1;" parent="1" vertex="1">
          <mxGeometry x="1313.5" y="987.5" width="161" height="60" as="geometry" />
        </mxCell>
        <mxCell id="P6B6IK8A87WF3uyFW7dz-9" value="存储层" style="rounded=0;whiteSpace=wrap;html=1;strokeWidth=2;" parent="1" vertex="1">
          <mxGeometry x="330" y="974" width="172" height="89" as="geometry" />
        </mxCell>
        <mxCell id="P6B6IK8A87WF3uyFW7dz-10" value="引擎层" style="rounded=0;whiteSpace=wrap;html=1;strokeWidth=2;" parent="1" vertex="1">
          <mxGeometry x="330" y="840" width="172" height="89" as="geometry" />
        </mxCell>
        <mxCell id="P6B6IK8A87WF3uyFW7dz-11" value="Ali LowCode Engine" style="rounded=0;whiteSpace=wrap;html=1;" parent="1" vertex="1">
          <mxGeometry x="571.5" y="855" width="159" height="60" as="geometry" />
        </mxCell>
        <mxCell id="P6B6IK8A87WF3uyFW7dz-12" value="Ali LowCode 搭建协议" style="rounded=0;whiteSpace=wrap;html=1;" parent="1" vertex="1">
          <mxGeometry x="756" y="855" width="154" height="60" as="geometry" />
        </mxCell>
        <mxCell id="P6B6IK8A87WF3uyFW7dz-13" value="Ali LowCode 物料协议" style="rounded=0;whiteSpace=wrap;html=1;" parent="1" vertex="1">
          <mxGeometry x="937" y="854.5" width="158" height="60" as="geometry" />
        </mxCell>
        <mxCell id="P6B6IK8A87WF3uyFW7dz-14" value="Ali LowCode 资产包协议" style="rounded=0;whiteSpace=wrap;html=1;" parent="1" vertex="1">
          <mxGeometry x="1122" y="854.5" width="158" height="60" as="geometry" />
        </mxCell>
        <mxCell id="P6B6IK8A87WF3uyFW7dz-15" value="搭建协议扩展" style="rounded=0;whiteSpace=wrap;html=1;" parent="1" vertex="1">
          <mxGeometry x="1307" y="854.5" width="158" height="60" as="geometry" />
        </mxCell>
        <mxCell id="P6B6IK8A87WF3uyFW7dz-16" value="物料协议扩展" style="rounded=0;whiteSpace=wrap;html=1;" parent="1" vertex="1">
          <mxGeometry x="1491.5" y="855" width="158" height="60" as="geometry" />
        </mxCell>
        <mxCell id="P6B6IK8A87WF3uyFW7dz-17" value="应用层" style="rounded=0;whiteSpace=wrap;html=1;strokeWidth=2;" parent="1" vertex="1">
          <mxGeometry x="332" y="467" width="172" height="315" as="geometry" />
        </mxCell>
        <mxCell id="P6B6IK8A87WF3uyFW7dz-18" value="..." style="rounded=0;whiteSpace=wrap;html=1;strokeWidth=1;" parent="1" vertex="1">
          <mxGeometry x="1494" y="988.5" width="161" height="60" as="geometry" />
        </mxCell>
        <mxCell id="P6B6IK8A87WF3uyFW7dz-19" value="" style="rounded=0;whiteSpace=wrap;html=1;strokeWidth=2;" parent="1" vertex="1">
          <mxGeometry x="569" y="481" width="708" height="287" as="geometry" />
        </mxCell>
        <mxCell id="P6B6IK8A87WF3uyFW7dz-20" value="平台能力" style="rounded=0;whiteSpace=wrap;html=1;strokeWidth=2;" parent="1" vertex="1">
          <mxGeometry x="569" y="481" width="708" height="43" as="geometry" />
        </mxCell>
        <mxCell id="P6B6IK8A87WF3uyFW7dz-21" value="JSObject" style="rounded=0;whiteSpace=wrap;html=1;fillColor=#dae8fc;strokeColor=#6c8ebf;" parent="1" vertex="1">
          <mxGeometry x="584" y="534" width="120" height="60" as="geometry" />
        </mxCell>
        <mxCell id="P6B6IK8A87WF3uyFW7dz-22" value="Component JSObject" style="rounded=0;whiteSpace=wrap;html=1;fillColor=#dae8fc;strokeColor=#6c8ebf;" parent="1" vertex="1">
          <mxGeometry x="721" y="534" width="120" height="60" as="geometry" />
        </mxCell>
        <mxCell id="P6B6IK8A87WF3uyFW7dz-23" value="TS类型" style="rounded=0;whiteSpace=wrap;html=1;fillColor=#dae8fc;strokeColor=#6c8ebf;" parent="1" vertex="1">
          <mxGeometry x="1002" y="534" width="120" height="60" as="geometry" />
        </mxCell>
        <mxCell id="P6B6IK8A87WF3uyFW7dz-24" value="Git托管" style="rounded=0;whiteSpace=wrap;html=1;fillColor=#ffe6cc;strokeColor=#d79b00;" parent="1" vertex="1">
          <mxGeometry x="584" y="693" width="120" height="60" as="geometry" />
        </mxCell>
        <mxCell id="P6B6IK8A87WF3uyFW7dz-25" value="全局错误检查" style="rounded=0;whiteSpace=wrap;html=1;fillColor=#dae8fc;strokeColor=#6c8ebf;" parent="1" vertex="1">
          <mxGeometry x="1137" y="534" width="120" height="60" as="geometry" />
        </mxCell>
        <mxCell id="P6B6IK8A87WF3uyFW7dz-26" value="数据/接口&lt;div&gt;快速生成UI&lt;/div&gt;" style="rounded=0;whiteSpace=wrap;html=1;fillColor=#d5e8d4;strokeColor=#82b366;" parent="1" vertex="1">
          <mxGeometry x="584" y="614" width="120" height="60" as="geometry" />
        </mxCell>
        <mxCell id="P6B6IK8A87WF3uyFW7dz-27" value="多分支多环境部署" style="rounded=0;whiteSpace=wrap;html=1;fillColor=#ffe6cc;strokeColor=#d79b00;" parent="1" vertex="1">
          <mxGeometry x="723" y="693" width="120" height="60" as="geometry" />
        </mxCell>
        <mxCell id="P6B6IK8A87WF3uyFW7dz-28" value="" style="rounded=0;whiteSpace=wrap;html=1;strokeWidth=2;" parent="1" vertex="1">
          <mxGeometry x="1304" y="479" width="161" height="287" as="geometry" />
        </mxCell>
        <mxCell id="P6B6IK8A87WF3uyFW7dz-29" value="接入能力" style="rounded=0;whiteSpace=wrap;html=1;strokeWidth=2;" parent="1" vertex="1">
          <mxGeometry x="1304" y="479" width="161" height="43" as="geometry" />
        </mxCell>
        <mxCell id="P6B6IK8A87WF3uyFW7dz-30" value="逻辑可视化编排" style="rounded=0;whiteSpace=wrap;html=1;fillColor=#dae8fc;strokeColor=#6c8ebf;" parent="1" vertex="1">
          <mxGeometry x="864" y="534" width="120" height="60" as="geometry" />
        </mxCell>
        <mxCell id="P6B6IK8A87WF3uyFW7dz-31" value="WebIDE模式" style="rounded=0;whiteSpace=wrap;html=1;fillColor=#ffe6cc;strokeColor=#d79b00;" parent="1" vertex="1">
          <mxGeometry x="864" y="693" width="120" height="60" as="geometry" />
        </mxCell>
        <mxCell id="P6B6IK8A87WF3uyFW7dz-32" value="渲染SDK" style="rounded=0;whiteSpace=wrap;html=1;" parent="1" vertex="1">
          <mxGeometry x="1322" y="532" width="120" height="60" as="geometry" />
        </mxCell>
        <mxCell id="P6B6IK8A87WF3uyFW7dz-33" value="Webpack/Vite&lt;div&gt;插件&lt;/div&gt;" style="rounded=0;whiteSpace=wrap;html=1;" parent="1" vertex="1">
          <mxGeometry x="1322" y="619" width="120" height="60" as="geometry" />
        </mxCell>
        <mxCell id="P6B6IK8A87WF3uyFW7dz-34" value="Module in Module" style="rounded=0;whiteSpace=wrap;html=1;fillColor=#d5e8d4;strokeColor=#82b366;" parent="1" vertex="1">
          <mxGeometry x="865" y="614" width="120" height="60" as="geometry" />
        </mxCell>
        <mxCell id="P6B6IK8A87WF3uyFW7dz-35" value="SPA搭建" style="rounded=0;whiteSpace=wrap;html=1;fillColor=#d5e8d4;strokeColor=#82b366;" parent="1" vertex="1">
          <mxGeometry x="723" y="614" width="120" height="60" as="geometry" />
        </mxCell>
        <mxCell id="P6B6IK8A87WF3uyFW7dz-36" value="" style="rounded=0;whiteSpace=wrap;html=1;strokeWidth=2;" parent="1" vertex="1">
          <mxGeometry x="1490" y="479" width="161" height="287" as="geometry" />
        </mxCell>
        <mxCell id="P6B6IK8A87WF3uyFW7dz-37" value="应用生态" style="rounded=0;whiteSpace=wrap;html=1;strokeWidth=2;" parent="1" vertex="1">
          <mxGeometry x="1490" y="479" width="161" height="43" as="geometry" />
        </mxCell>
        <mxCell id="P6B6IK8A87WF3uyFW7dz-38" value="物料中心" style="rounded=0;whiteSpace=wrap;html=1;" parent="1" vertex="1">
          <mxGeometry x="1510.5" y="534" width="120" height="60" as="geometry" />
        </mxCell>
        <mxCell id="P6B6IK8A87WF3uyFW7dz-39" value="文档中心" style="rounded=0;whiteSpace=wrap;html=1;" parent="1" vertex="1">
          <mxGeometry x="1510.5" y="619" width="120" height="60" as="geometry" />
        </mxCell>
        <mxCell id="P6B6IK8A87WF3uyFW7dz-40" value="业务层" style="rounded=0;whiteSpace=wrap;html=1;strokeWidth=2;" parent="1" vertex="1">
          <mxGeometry x="332" y="330" width="172" height="89" as="geometry" />
        </mxCell>
        <mxCell id="P6B6IK8A87WF3uyFW7dz-41" value="" style="rounded=0;whiteSpace=wrap;html=1;strokeWidth=2;" parent="1" vertex="1">
          <mxGeometry x="548" y="330" width="1122" height="90" as="geometry" />
        </mxCell>
        <mxCell id="P6B6IK8A87WF3uyFW7dz-42" value="Infra：70+业务，100+应用渐进接入" style="rounded=0;whiteSpace=wrap;html=1;" parent="1" vertex="1">
          <mxGeometry x="567" y="345" width="272" height="60" as="geometry" />
        </mxCell>
        <mxCell id="P6B6IK8A87WF3uyFW7dz-43" value="MarketPlace：1业务，2应用从0接入" style="rounded=0;whiteSpace=wrap;html=1;" parent="1" vertex="1">
          <mxGeometry x="905" y="345" width="303" height="60" as="geometry" />
        </mxCell>
        <mxCell id="P6B6IK8A87WF3uyFW7dz-44" value="SLA：1业务，1应用从0接入中" style="rounded=0;whiteSpace=wrap;html=1;" parent="1" vertex="1">
          <mxGeometry x="1280" y="344.5" width="303" height="60" as="geometry" />
        </mxCell>
        <mxCell id="P6B6IK8A87WF3uyFW7dz-45" value="" style="rounded=0;whiteSpace=wrap;html=1;strokeWidth=2;" parent="1" vertex="1">
          <mxGeometry x="1718" y="330" width="172" height="731" as="geometry" />
        </mxCell>
        <mxCell id="P6B6IK8A87WF3uyFW7dz-46" value="运维" style="rounded=0;whiteSpace=wrap;html=1;strokeWidth=2;" parent="1" vertex="1">
          <mxGeometry x="1718" y="330" width="172" height="58" as="geometry" />
        </mxCell>
        <mxCell id="P6B6IK8A87WF3uyFW7dz-47" value="Sentry" style="rounded=0;whiteSpace=wrap;html=1;" parent="1" vertex="1">
          <mxGeometry x="1746" y="416" width="120" height="60" as="geometry" />
        </mxCell>
        <mxCell id="P6B6IK8A87WF3uyFW7dz-48" value="Prometheus" style="rounded=0;whiteSpace=wrap;html=1;" parent="1" vertex="1">
          <mxGeometry x="1745" y="509" width="120" height="60" as="geometry" />
        </mxCell>
        <mxCell id="P6B6IK8A87WF3uyFW7dz-49" value="Loki" style="rounded=0;whiteSpace=wrap;html=1;" parent="1" vertex="1">
          <mxGeometry x="1744" y="602" width="120" height="60" as="geometry" />
        </mxCell>
        <mxCell id="P6B6IK8A87WF3uyFW7dz-50" value="Grafana" style="rounded=0;whiteSpace=wrap;html=1;" parent="1" vertex="1">
          <mxGeometry x="1744" y="693" width="120" height="60" as="geometry" />
        </mxCell>
        <mxCell id="P6B6IK8A87WF3uyFW7dz-51" value="性能平台" style="rounded=0;whiteSpace=wrap;html=1;" parent="1" vertex="1">
          <mxGeometry x="1745" y="787" width="120" height="60" as="geometry" />
        </mxCell>
        <mxCell id="P6B6IK8A87WF3uyFW7dz-52" value="..." style="rounded=0;whiteSpace=wrap;html=1;" parent="1" vertex="1">
          <mxGeometry x="1746" y="882" width="120" height="60" as="geometry" />
        </mxCell>
        <mxCell id="P6B6IK8A87WF3uyFW7dz-53" value="AI助手" style="rounded=0;whiteSpace=wrap;html=1;fillColor=#ffe6cc;strokeColor=#d79b00;" parent="1" vertex="1">
          <mxGeometry x="1000" y="693" width="120" height="60" as="geometry" />
        </mxCell>
      </root>
    </mxGraphModel>
  </diagram>
</mxfile>
